<svg t="1764404459891" class="icon" viewBox="0 0 1024 1024" version="1.1" xmlns="http://www.w3.org/2000/svg" p-id="5547" width="200" height="200"><path d="M178.976 28.16h666.048a150.816 150.816 0 0 1 150.816 150.816v439.84c0 208.224-168.8 377.024-377.024 377.024H178.976A150.816 150.816 0 0 1 28.16 845.024V178.976A150.816 150.816 0 0 1 178.976 28.16z" fill="#7A6EFF" p-id="5548"></path><path d="M729.248 525.76l-49.184-26.88 49.088-26.816 26.848-49.12 26.88 49.024 49.12 26.88-49.056 26.912-26.88 49.12-26.816-49.12z m-102.4 152l-49.12-26.848 49.056-26.816 26.88-49.12 26.816 49.12 49.184 26.816-49.184 26.88-26.816 49.12-26.752-49.12-0.064-0.032z m-289.92-347.36L270.816 294.304l66.112-36.16L373.088 192l36.16 66.144 66.144 36.16-66.176 36.16-36.16 66.176-36.16-66.176v-0.064z m342.496 14.24c28.128 28.16 28.128 73.76 0 101.92L348 777.952a72.064 72.064 0 0 1-121.664-31.872 72.256 72.256 0 0 1 19.616-70.112l331.52-331.456a72.16 72.16 0 0 1 101.952 0.096z m-135.68 186.432l108.256-108.288a35.904 35.904 0 0 0-16-60.064c-12.416-3.328-25.632 0.224-34.688 9.312l-108.352 108.352a70.72 70.72 0 0 1 32.16 18.624c9.248 9.12 15.392 20.256 18.656 32v0.064z" fill="#FFFFFF" p-id="5549"></path></svg>
